<svg xmlns="http://www.w3.org/2000/svg" xmlns:xlink="http://www.w3.org/1999/xlink" viewBox="0 0 162 60" fill="none"><path d="M78.012 19.86c-1.18.394-1.87.787-4.527.787-4.527 0-7.184-3.15-7.184-8.07C66.3 8.247 68.073 5 72.698 5c3.543 0 5.904 1.77 5.904 4.428h-3.838c0-1.28-.295-3.346-2.362-3.346-2.165 0-2.657 2.362-2.657 5.5 0 4.724 2.165 7.38 5.117 7.38.984 0 2.362-.197 3.05-.492v1.378H78zm2.362-6.987C80.374 7.46 82.637 5 87.36 5s6.987 3.247 6.987 7.873c0 5.216-2.165 7.774-6.987 7.774-5.216 0-6.987-3.247-6.987-7.774zm6.987 6.692c3.15 0 3.444-3.543 3.444-6.692 0-2.952-.295-6.8-3.444-6.8s-3.444 3.936-3.444 6.8c0 2.657.295 6.692 3.444 6.692zm9.25-.1c.6-.6 3.444-2.952 3.444-4.822 0-.787-.6-1.28-1.378-1.28-.886 0-1.28.7-1.378 1.083h-.6c.197-.492.787-1.575 2.263-1.575s2.46.6 2.46 2.067c0 1.968-3.15 4.035-3.74 4.625h2.362c1.083 0 1.18-.492 1.18-1.082h.394v1.87h-4.92v-.886h-.1zM56.56 35.3c0-2.263-.6-2.756-2.56-2.854v-.7l5.806-.984v4.133h.098c.492-1.083 2.165-4.133 5.412-4.133 2.952 0 3.936 2.066 3.936 4.527v10.825h-3.248V37.77c0-2.56 0-4.822-2.165-4.822s-3.936 2.952-3.936 5.314v7.873H56.56V35.3zm27.848 10.244c-.6.197-2.362.886-4.527.886-4.92 0-7.873-2.952-7.873-8.365 0-5.117 2.46-7.282 6.8-7.282 5.5 0 6.003 4.035 6.003 6.1h-9.16c0 3.247 1.28 7.774 5.904 7.774 1.378 0 2.46-.295 3.05-.6v1.476h-.197zm-2.854-9.94c0-.787-.098-3.74-2.854-3.74-2.46 0-3.05 2.56-3.05 3.74h5.904zm16.04 6.79c-.6 1.378-1.968 4.035-5.02 4.035-4.33 0-4.33-4.232-4.33-6.593V35.3c0-2.263-.492-2.756-2.46-2.854v-.7l5.708-.984v9.644c0 2.952 1.082 3.838 2.657 3.838 2.067 0 3.543-2.755 3.543-5.412V35.3c0-2.263-.6-2.756-2.46-2.854v-.7l5.708-.984v15.352h-3.248v-3.74h-.098zm15.253 3.74c-.7.098-1.476.295-2.165.295-3.05 0-4.92-.492-4.92-4.133v-9.84h-2.56v-1.28h2.56v-2.56L109 25.764v5.413h4.232v1.28H109v9.35c0 2.263.197 3.247 2.657 3.247.394 0 .788 0 1.18-.1v1.18zM116.98 35.3c0-2.263-.492-2.756-2.558-2.854v-.7l5.806-.984v4.23h.098c.492-1.476 1.476-4.23 4.035-4.23.6 0 1.18.098 1.77.197v3.05c-.492-.197-1.082-.394-1.672-.394-3.248 0-4.232 2.56-4.232 4.822v7.676h-3.248V35.3zm18.7 8.867c-.6.7-1.673 2.263-4.133 2.263-2.56 0-4.33-1.77-4.33-3.74 0-4.527 6.396-4.92 8.463-4.92v-1.673c0-2.067 0-4.33-2.067-4.33-2.165 0-2.263 1.87-2.263 3.247h-3.838c.394-2.165 1.378-4.33 6.1-4.33 4.527 0 5.314 2.362 5.314 5.5v9.742h-3.247v-1.77zm0-5.216c-1.18 0-4.92.197-4.92 3.248 0 1.476.787 2.56 1.968 2.56 1.87 0 2.952-1.673 2.952-3.936v-1.87zm6.986-11.02c0-2.263-.6-2.854-2.46-2.952v-.7l5.708-.787v22.536h-3.248V27.93zm18.6 17.614c-.6.197-2.362.886-4.527.886-4.92 0-7.872-2.952-7.872-8.365 0-5.117 2.46-7.282 6.8-7.282 5.5 0 6.003 4.035 6.003 6.1h-9.25c0 3.247 1.28 7.774 5.905 7.774 1.378 0 2.46-.295 3.05-.6v1.476h-.1zm-2.854-9.94c0-.787-.098-3.74-2.854-3.74-2.46 0-3.05 2.56-3.05 3.74h5.904zm-64.725 17.98c-.227-.813-.364-.994-1.228-1.04v-.27h2.183l1.182 4.563h.045l1.546-4.563h.6l1.728 4.608h.046l1-4.608h.682l-1.4 6.145h-1l-1.5-4.202h-.045L96.05 58.42h-1l-1.364-4.834zm13.69 4.61c-.272.1-.955.36-1.864.36-2.047 0-3.275-1.22-3.275-3.434 0-2.078 1-2.982 2.775-2.982 2.273 0 2.455 1.627 2.455 2.53h-3.774c0 1.3.545 3.208 2.4 3.208a3.46 3.46 0 0 0 1.228-.226v.542h.045zm-1.182-4.1c0-.316-.046-1.536-1.182-1.536-1 0-1.274 1.04-1.274 1.536h2.456zm2.5-3.163c0-.904-.228-1.13-1-1.175v-.27l2.365-.316v3.93h.046c.227-.452.636-.994 1.637-.994 1.9 0 2.365 1.717 2.365 3.343s-.682 3.072-2.4 3.072c-.9 0-1.4-.587-1.728-.904l-.9.723h-.364v-7.4zm1.32 4.563c0 .678.1 2.35 1.228 2.35 1.273 0 1.364-1.536 1.364-2.575 0-.904-.136-2.44-1.273-2.44s-1.32 1.355-1.32 2.124v.542zm8.822-2.17c-.182-.136-.818-.633-1.592-.633-.4 0-.9.136-.9.723 0 1.265 2.9 1.265 2.9 3.298 0 1.3-1.1 1.807-2.4 1.807-.82 0-1.4-.18-1.683-.226v-1.04c.364.27 1 .678 1.774.678.82 0 1.137-.407 1.137-.904 0-1.3-2.9-1.355-2.9-3.208 0-.95.637-1.762 2.23-1.762.682 0 1.273.18 1.5.226v1.04h-.046zm2.138.677c0-.904-.228-1.13-1-1.175v-.27l2.365-.407v6.28h-1.364V54zm-.137-3.75c0-.452.364-.813.82-.813s.864.36.864.813-.4.813-.864.813-.82-.36-.82-.813zm6.64 8.18a5.63 5.63 0 0 1-.909.09c-1.274 0-2-.18-2-1.717v-4.066h-1.046v-.542h1.046v-1.04l1.318-1.175v2.214h1.73v.542h-1.73v3.84c0 .904.046 1.3 1.092 1.3.136 0 .318 0 .5-.045v.587zm5.867-.227c-.273.1-.955.36-1.865.36-2.046 0-3.274-1.22-3.274-3.434 0-2.078 1-2.982 2.774-2.982 2.274 0 2.456 1.627 2.456 2.53h-3.775c0 1.3.546 3.208 2.4 3.208a3.46 3.46 0 0 0 1.228-.226v.542h.046zm-1.228-4.1c0-.316-.046-1.536-1.183-1.536-1 0-1.273 1.04-1.273 1.536h2.456zm7.184-1.9l6.413 3.163L139.3 58.5v-6.325z" fill="#fff"/><path opacity=".25" d="M1.092 57.56c0 1.355 8.414 2.44 18.783 2.44s18.783-1.084 18.783-2.44-8.414-2.44-18.783-2.44c-10.37.045-18.783 1.13-18.783 2.44z" fill="url(#A)"/><path d="M0 39.85C0 46.807 5.64 52.4 12.643 52.4c6.503 0 11.825-4.88 12.552-11.114a9.77 9.77 0 0 0 8.959 5.828c5.366 0 9.732-4.337 9.732-9.67 0-4.383-2.956-8.133-7.004-9.307a11.73 11.73 0 0 0 3.002-7.861c0-6.55-5.367-11.883-11.96-11.883-.682 0-1.4.045-2.047.18A11.1 11.1 0 0 0 15.054 0C8.96 0 4.002 4.925 4.002 11.024c0 2.124.59 4.066 1.637 5.738C2.4 17.62 0 20.512 0 23.99c0 2.892 1.637 5.377 4.048 6.642C1.546 32.937 0 36.235 0 39.85z" fill="#69a82f"/><use xlink:href="#D" fill="#94c122"/><use xlink:href="#D" fill="url(#B)"/><path d="M5.003 6.416c2.047-2.35 5.048-3.886 8.46-3.886 5.276 0 9.687 3.66 10.824 8.54.682-.136 1.364-.18 2.047-.18 6.594 0 11.96 5.33 11.96 11.883 0 1.807-.41 3.524-1.137 5.06 1.728-2.078 2.774-4.7 2.774-7.6 0-6.55-5.366-11.883-11.96-11.883-.682 0-1.4.045-2.046.18A11.2 11.2 0 0 0 15.054 0c-4.457 0-8.277 2.62-10.05 6.416zm18.555 37.4c-.182 1.446-.546 2.756-1.182 4.02A11.52 11.52 0 0 0 24.15 45c-.227-.407-.41-.768-.59-1.175z" fill="url(#C)"/><g fill="#277833"><path d="M33.973 22.545l-6.503 4.7c-2.047 1.762-4.048 3.93-4.866 6.913l2.5.497c.182-2.26 2.183-3.976 3.866-5.92 1.728-1.988 3.093-4.337 5.003-6.2z"/><path d="M16.327 14.187c4.548 5.92 4.684 14.367 5.548 21.325.728 6.28.046 12.877-2.32 18.253-1.137 2.26-4.002 4.112-4.275 4.7l9.687-.045c2.82-8.087 2.32-16.13.318-23.584-2.092-7.32-2.183-17.53-8.96-20.648z"/><path d="M10.597 32.846c2.547.768 5.32.678 7.868 1.672 2.5.994 4.912 3.163 6.64 5.738L22.92 41.52c-.91-2.078-2.956-3.795-5.185-5.105-2.228-1.355-4.64-2.35-7.14-3.57z"/></g><defs><radialGradient id="A" cx="0" cy="0" r="1" gradientUnits="userSpaceOnUse" gradientTransform="translate(19.8762 57.5816) rotate(180) scale(18.7651 2.43243)"><stop offset=".292" stop-color="#000505"/><stop offset="1" stop-color="#004343"/></radialGradient><linearGradient id="B" x1="0" y1="41.824" x2="23.842" y2="41.824" gradientUnits="userSpaceOnUse"><stop offset=".067" stop-color="#69a82f"/><stop offset=".365" stop-color="#dae49b"/><stop offset=".697" stop-color="#69a82f"/></linearGradient><linearGradient id="C" x1="5.008" y1="23.917" x2="39.902" y2="23.917" gradientUnits="userSpaceOnUse"><stop offset=".062" stop-color="#69a82f"/><stop offset=".182" stop-color="#9dbf55"/><stop offset=".293" stop-color="#c0d37b"/><stop offset=".38" stop-color="#d3e092"/><stop offset=".433" stop-color="#dae49b"/><stop offset=".565" stop-color="#c7d883"/><stop offset=".846" stop-color="#90b84a"/><stop offset="1" stop-color="#69a82f"/></linearGradient><path id="D" d="M3.456 31.22C1.32 33.48 0 36.506 0 39.85 0 46.807 5.64 52.4 12.643 52.4c4.866 0 9.096-2.756 11.188-6.777-2.32 2.395-5.548 3.93-9.187 3.93-6.958 0-12.598-5.602-12.598-12.515 0-2.123.5-4.066 1.4-5.828z"/></defs></svg>