<?xml version="1.0" encoding="utf-8"?>
<!-- Generator: Adobe Illustrator 25.4.1, SVG Export Plug-In . SVG Version: 6.00 Build 0)  -->
<svg version="1.1" id="Layer_1" xmlns="http://www.w3.org/2000/svg" xmlns:xlink="http://www.w3.org/1999/xlink" x="0px" y="0px"
	 viewBox="0 0 514.5 165.4" style="enable-background:new 0 0 514.5 165.4;" xml:space="preserve">
<style type="text/css">
	.st0{fill:#878787;}
	.st1{fill-rule:evenodd;clip-rule:evenodd;fill:#1A1A1A;}
	.st2{fill-rule:evenodd;clip-rule:evenodd;fill:#CC0C07;}
	.st3{fill-rule:evenodd;clip-rule:evenodd;fill:#E4560B;}
	.st4{fill-rule:evenodd;clip-rule:evenodd;fill:#F9B004;}
	.st5{fill-rule:evenodd;clip-rule:evenodd;fill:#FFE505;}
	.st6{fill-rule:evenodd;clip-rule:evenodd;fill:#CAD511;}
	.st7{fill-rule:evenodd;clip-rule:evenodd;fill:#9AC42F;}
	.st8{fill-rule:evenodd;clip-rule:evenodd;fill:#44AD40;}
	.st9{fill:#44AD40;}
	.st10{fill:#FFFFFF;}
</style>
<g>
	<path class="st0" d="M248.8,155.6c0-3.2,0.9-5.7,2.6-7.5c1.7-1.8,3.9-2.7,6.7-2.7c1.8,0,3.4,0.4,4.8,1.3c1.4,0.9,2.5,2,3.3,3.6
		c0.8,1.5,1.1,3.3,1.1,5.2c0,2-0.4,3.7-1.2,5.3c-0.8,1.5-1.9,2.7-3.4,3.5c-1.5,0.8-3,1.2-4.7,1.2c-1.8,0-3.4-0.4-4.9-1.3
		c-1.4-0.9-2.5-2.1-3.3-3.6C249.2,158.9,248.8,157.3,248.8,155.6z M251.5,155.7c0,2.3,0.6,4.2,1.9,5.5c1.3,1.3,2.8,2,4.7,2
		c1.9,0,3.5-0.7,4.8-2c1.2-1.4,1.9-3.3,1.9-5.8c0-1.6-0.3-2.9-0.8-4.1c-0.5-1.2-1.3-2.1-2.3-2.7c-1-0.6-2.2-1-3.4-1
		c-1.8,0-3.4,0.6-4.7,1.9C252.1,150.7,251.5,152.8,251.5,155.7z"/>
	<path class="st0" d="M270.6,165v-19.3h2.6l10.2,15.2v-15.2h2.5V165h-2.6L273,149.9V165H270.6z"/>
	<path class="st0" d="M290,165v-19.3h2.6v17h9.5v2.3H290z"/>
	<path class="st0" d="M305.6,165v-19.3h2.6V165H305.6z"/>
	<path class="st0" d="M312.6,165v-19.3h2.6l10.2,15.2v-15.2h2.5V165h-2.6L315,149.9V165H312.6z"/>
	<path class="st0" d="M332.2,165v-19.3h14v2.3h-11.4v5.9h10.7v2.3h-10.7v6.6h11.9v2.3H332.2z"/>
	<path class="st0" d="M357.7,165v-19.3h14v2.3h-11.4v5.9h10.7v2.3h-10.7v6.6h11.9v2.3H357.7z"/>
	<path class="st0" d="M375.7,165v-19.3h8.6c1.7,0,3,0.2,3.9,0.5c0.9,0.3,1.6,1,2.1,1.8c0.5,0.9,0.8,1.9,0.8,2.9
		c0,1.4-0.4,2.5-1.3,3.5c-0.9,0.9-2.3,1.5-4.1,1.8c0.7,0.3,1.2,0.6,1.5,1c0.7,0.7,1.5,1.5,2.1,2.6l3.4,5.3h-3.2l-2.6-4
		c-0.7-1.2-1.4-2-1.8-2.7c-0.5-0.6-0.9-1-1.3-1.3c-0.4-0.2-0.8-0.4-1.2-0.5c-0.3-0.1-0.8-0.1-1.4-0.1h-3v8.6H375.7z M378.2,154.2
		h5.5c1.2,0,2.1-0.1,2.7-0.4c0.7-0.2,1.2-0.6,1.5-1.2c0.3-0.5,0.5-1.1,0.5-1.7c0-0.9-0.3-1.7-1-2.3c-0.7-0.6-1.7-0.9-3.1-0.9h-6.1
		V154.2z"/>
	<path class="st0" d="M394.3,158.8l2.4-0.2c0.1,1,0.4,1.8,0.8,2.4c0.4,0.6,1.1,1.1,1.9,1.5c0.9,0.4,1.9,0.6,3,0.6
		c1,0,1.8-0.1,2.6-0.4c0.7-0.3,1.3-0.7,1.7-1.2s0.5-1.1,0.5-1.7c0-0.6-0.2-1.1-0.5-1.6c-0.4-0.5-0.9-0.8-1.7-1.1
		c-0.5-0.2-1.7-0.5-3.4-0.9c-1.8-0.4-3-0.8-3.7-1.2c-0.9-0.5-1.6-1.1-2.1-1.8c-0.5-0.7-0.7-1.5-0.7-2.4c0-1,0.3-1.9,0.8-2.7
		c0.6-0.8,1.4-1.5,2.4-1.9c1.1-0.4,2.2-0.7,3.5-0.7c1.4,0,2.7,0.2,3.8,0.7c1.1,0.5,1.9,1.1,2.5,2c0.6,0.9,0.9,1.9,0.9,3l-2.5,0.2
		c-0.1-1.2-0.6-2.1-1.3-2.8c-0.8-0.6-1.9-0.9-3.4-0.9c-1.5,0-2.7,0.3-3.4,0.9c-0.7,0.6-1.1,1.2-1.1,2.1c0,0.7,0.3,1.3,0.8,1.7
		c0.5,0.4,1.8,0.9,3.9,1.4c2.1,0.5,3.5,0.9,4.3,1.2c1.1,0.5,2,1.2,2.5,2c0.5,0.8,0.8,1.7,0.8,2.7c0,1-0.3,2-0.9,2.9
		c-0.6,0.9-1.4,1.6-2.5,2.1c-1.1,0.5-2.3,0.8-3.7,0.8c-1.7,0-3.2-0.3-4.4-0.8c-1.2-0.5-2.1-1.3-2.8-2.3
		C394.7,161.3,394.3,160.1,394.3,158.8z"/>
	<path class="st0" d="M418.1,165v-17h-6.4v-2.3H427v2.3h-6.4v17H418.1z"/>
	<path class="st0" d="M429.7,165v-19.3h14v2.3h-11.4v5.9h10.7v2.3h-10.7v6.6h11.9v2.3H429.7z"/>
	<path class="st0" d="M447.5,165v-19.3h2.6v17h9.5v2.3H447.5z"/>
	<path class="st0" d="M462.6,165v-19.3h2.6v17h9.5v2.3H462.6z"/>
	<path class="st0" d="M477.7,165v-19.3h14v2.3h-11.4v5.9H491v2.3h-10.7v6.6h11.9v2.3H477.7z"/>
	<path class="st0" d="M495.7,165v-19.3h2.6l10.2,15.2v-15.2h2.5V165h-2.6l-10.2-15.2V165H495.7z"/>
</g>
<polygon class="st1" points="27.1,120.3 27.1,112.4 8.7,112.4 8.7,103.4 29.6,103.4 29.6,95.9 0.2,95.9 0.2,136.3 31.5,136.3 
	31.5,128.9 8.7,128.9 8.7,120.3 "/>
<polygon class="st1" points="65.1,136.3 72.6,136.3 72.6,96 65.1,96 65.1,121.1 47.1,96 37,96 37,136.3 44.7,136.3 44.7,108.5 "/>
<polygon class="st1" points="105.4,120.3 105.4,112.4 87.1,112.4 87.1,103.4 107.9,103.4 107.9,95.9 78.5,95.9 78.5,136.3 
	109.8,136.3 109.8,128.9 87.1,128.9 87.1,120.3 "/>
<path class="st1" d="M131.9,103c2.2-0.1,4,0.3,5.5,1.1c1.5,0.8,2.2,2.4,2.3,5c-0.1,2.5-0.8,4.2-2.3,5c-1.5,0.8-3.3,1.2-5.5,1.1H125
	V103H131.9z M138.7,121.5c3.3-0.8,5.8-2.4,7.3-4.7c1.5-2.3,2.3-4.9,2.3-7.7c0-2.2-0.4-4.3-1.4-6.3c-0.9-2-2.4-3.5-4.5-4.8
	c-2.1-1.2-4.8-1.9-8.2-1.9h-18.2v40.3h8.9v-14.4h4.3l10.2,14.4h10.8L139,121.5H138.7z"/>
<path class="st1" d="M195,114.9c-3.5,0-7.1,0-10.8,0c-3.6,0-6.9,0-9.8,0v7.4c0,0,0.1,0,0.4,0.1c0.3,0,0.7,0,1.2,0c1.2,0,2.6,0,4.3,0
	c1.6,0,2.9,0,3.9,0h0.9c-0.9,1.9-2.3,3.4-4.3,4.5c-2,1.1-4.1,1.6-6.4,1.6c-3.5-0.1-6.3-1.3-8.6-3.5c-2.3-2.3-3.5-5.2-3.6-8.7
	c0.1-3.5,1.3-6.3,3.6-8.6c2.3-2.3,5.2-3.5,8.6-3.6c2.3,0,4.3,0.6,6.1,1.6c1.8,1.1,3.2,2.5,4.3,4.3c1.3-0.6,2.3-1.1,3-1.5
	c0.7-0.4,1.4-0.7,2.1-1.1c0.7-0.3,1.6-0.8,2.7-1.4c-1.9-3.2-4.4-5.7-7.5-7.6c-3.2-1.9-6.7-2.9-10.7-3c-3.9,0-7.4,1-10.5,2.9
	c-3.1,1.9-5.6,4.3-7.5,7.5c-1.9,3.1-2.8,6.6-2.8,10.5c0,3.9,1,7.4,2.8,10.5c1.9,3.1,4.3,5.6,7.5,7.5c3.1,1.9,6.6,2.8,10.5,2.9
	c4,0,7.6-1,10.8-3c3.2-1.9,5.7-4.6,7.5-7.8c0.7-1,1.2-2.3,1.5-3.9c0.3-1.6,0.5-3.1,0.6-4.6C194.9,116.3,195,115.3,195,114.9z"/>
<rect x="199.7" y="96.1" class="st1" width="8.8" height="40.3"/>
<polygon class="st1" points="242.3,120.3 242.3,112.4 223.9,112.4 223.9,103.4 244.7,103.4 244.7,95.9 215.3,95.9 215.3,136.3 
	246.6,136.3 246.6,128.9 223.9,128.9 223.9,120.3 "/>
<path class="st1" d="M272,103.7l6.5,15.6h-13.4L272,103.7L272,103.7z M257.1,136.3l4.2-8.9h20.4l3.9,8.9h8.6l-18-40.3h-8.9
	l-18.3,40.3H257.1z"/>
<path class="st1" d="M332.6,96.1h-8.8v25c0,3-0.6,5.2-1.8,6.6c-1.3,1.4-3.4,2.1-6.5,2.1c-2.4,0-4.1-0.5-5.3-1.3
	c-1.2-0.8-2-1.9-2.4-3.2c-0.4-1.3-0.6-2.7-0.6-4.2v-25h-8.8v25c0,5.5,1.5,9.6,4.5,12.2c3,2.7,7.2,4,12.7,4c5.4,0,9.6-1.3,12.6-4
	c3-2.7,4.5-6.7,4.6-12.2V96.1z"/>
<path class="st1" d="M337.6,123c0,3.3,0.9,6,2.4,8.1c1.6,2.1,3.7,3.7,6.2,4.7c2.6,1,5.4,1.5,8.5,1.5c5.5-0.1,9.7-1.3,12.5-3.7
	c2.8-2.4,4.2-5.5,4.2-9.2c-0.1-3-0.9-5.3-2.4-6.9c-1.5-1.6-3.2-2.8-5.1-3.4c-1.9-0.7-3.3-1.1-4.4-1.3c-3.3-0.8-5.9-1.4-7.6-2
	c-1.7-0.5-2.9-1.1-3.5-1.7c-0.6-0.6-0.9-1.4-0.9-2.4c0.1-1.7,0.7-2.9,2-3.5c1.2-0.7,2.6-1,4.1-1c1.5-0.1,3,0.1,4.6,0.7
	c1.6,0.5,2.7,1.9,3.3,4.2l8.6,1.2c0-3.1-0.8-5.6-2.3-7.5c-1.5-1.9-3.5-3.3-5.9-4.2c-2.4-0.9-5.1-1.3-7.9-1.3c-2.5,0-4.9,0.4-7.1,1.3
	c-2.3,0.9-4.2,2.2-5.6,4c-1.5,1.8-2.2,4.1-2.3,6.8c0.1,3,0.9,5.2,2.5,6.8c1.6,1.6,3.6,2.8,5.9,3.6c2.4,0.8,4.7,1.4,7.1,2
	c2.4,0.5,4.3,1.2,5.9,2c1.6,0.8,2.4,2.1,2.5,3.7c0,1.4-0.5,2.4-1.3,3.1c-0.9,0.7-1.9,1.2-3.1,1.5c-1.2,0.3-2.3,0.4-3.4,0.4
	c-1.1,0-2.3-0.1-3.6-0.4c-1.3-0.3-2.4-0.9-3.4-1.7c-1-0.9-1.7-2.2-2-3.9L337.6,123z"/>
<polygon class="st1" points="425.9,96.1 417.2,96.1 411.3,123.9 410.5,123.8 403.6,96.1 395.3,96.1 388.3,123.5 387.5,123.6 
	381.8,96.1 373,96.1 383.6,136.3 392.6,136.3 399.3,108.9 399.4,108.9 406.3,136.3 415.1,136.3 "/>
<polygon class="st1" points="455.9,120.3 455.9,112.4 437.5,112.4 437.5,103.4 458.3,103.4 458.3,95.9 428.9,95.9 428.9,136.3 
	460.2,136.3 460.2,128.9 437.5,128.9 437.5,120.3 "/>
<rect x="466.5" y="96.1" class="st1" width="8.8" height="40.3"/>
<path class="st1" d="M480.6,123c0,3.3,0.9,6,2.4,8.1c1.6,2.1,3.7,3.7,6.2,4.7c2.6,1,5.4,1.5,8.5,1.5c5.5-0.1,9.7-1.3,12.5-3.7
	c2.8-2.4,4.2-5.5,4.2-9.2c-0.1-3-0.9-5.3-2.4-6.9c-1.5-1.6-3.2-2.8-5.1-3.4c-1.9-0.7-3.3-1.1-4.4-1.3c-3.3-0.8-5.9-1.4-7.6-2
	c-1.7-0.5-2.9-1.1-3.5-1.7c-0.6-0.6-0.9-1.4-0.9-2.4c0.1-1.7,0.7-2.9,2-3.5c1.2-0.7,2.6-1,4.1-1c1.5-0.1,3,0.1,4.6,0.7
	c1.6,0.5,2.7,1.9,3.3,4.2l8.6,1.2c0-3.1-0.8-5.6-2.3-7.5c-1.5-1.9-3.5-3.3-5.9-4.2c-2.4-0.9-5.1-1.3-7.9-1.3c-2.5,0-4.9,0.4-7.1,1.3
	c-2.3,0.9-4.2,2.2-5.6,4c-1.5,1.8-2.2,4.1-2.3,6.8c0.1,3,0.9,5.2,2.5,6.8c1.6,1.6,3.6,2.8,5.9,3.6c2.4,0.8,4.7,1.4,7.1,2
	c2.4,0.5,4.3,1.2,5.9,2c1.6,0.8,2.4,2.1,2.5,3.7c0,1.4-0.5,2.4-1.3,3.1c-0.9,0.7-1.9,1.2-3.1,1.5c-1.2,0.3-2.3,0.4-3.4,0.4
	c-1.1,0-2.3-0.1-3.6-0.4c-1.3-0.3-2.4-0.9-3.4-1.7c-1-0.9-1.7-2.2-2-3.9L480.6,123z"/>
<polygon class="st2" points="121,3.6 115.3,10.3 115.3,88.5 127,88.5 126.7,10.3 "/>
<polygon class="st3" points="107.4,10.7 101.6,17.4 101.6,89.4 113.3,89 113.1,17.4 "/>
<polygon class="st4" points="93.4,16.7 87.7,23.4 87.7,89.8 99.4,89.5 99.1,23.4 "/>
<polygon class="st5" points="79.9,23.1 74.2,29.8 74.2,89.2 85.9,89.1 85.6,29.8 "/>
<polygon class="st6" points="65.9,30.4 60.2,37 60.2,89.5 71.9,89.5 71.6,37 "/>
<polygon class="st7" points="51.9,36.6 46.2,43.3 46.2,89.8 57.9,89.7 57.6,43.3 "/>
<polygon class="st8" points="37.9,44 32.2,50.7 32.2,89.9 43.9,89.5 43.6,50.7 "/>
<polygon class="st8" points="132.4,0 220.4,47.3 220.4,88.5 132.4,89.1 "/>
<polygon class="st7" points="244.6,83.8 0.2,83.8 0.2,91.1 244.6,90.3 "/>
<rect x="146.1" y="50.2" class="st9" width="33.7" height="6.8"/>
<rect x="160.6" y="48.3" class="st10" width="21.2" height="21.2"/>
<rect x="168.2" y="42.1" class="st9" width="5.3" height="29.4"/>
<rect x="156.7" y="56" class="st9" width="29.4" height="5.3"/>
</svg>
