<?xml version="1.0" encoding="UTF-8"?>
<svg id="Layer_1" data-name="Layer 1" xmlns="http://www.w3.org/2000/svg" viewBox="0 0 515.64 140.75">
  <defs>
    <style>
      .cls-1 {
        fill: #9ac42f;
      }

      .cls-1, .cls-2, .cls-3, .cls-4, .cls-5, .cls-6, .cls-7, .cls-8 {
        fill-rule: evenodd;
      }

      .cls-1, .cls-2, .cls-3, .cls-4, .cls-5, .cls-6, .cls-7, .cls-8, .cls-9, .cls-10, .cls-11, .cls-12, .cls-13 {
        stroke-width: 0px;
      }

      .cls-2, .cls-12 {
        fill: #1a1a1a;
      }

      .cls-3, .cls-10 {
        fill: #44ad40;
      }

      .cls-4 {
        fill: #cad511;
      }

      .cls-5 {
        fill: #cc0c07;
      }

      .cls-6 {
        fill: #e4560b;
      }

      .cls-7 {
        fill: #ffe505;
      }

      .cls-8 {
        fill: #f9b004;
      }

      .cls-11 {
        fill: #878787;
      }

      .cls-13 {
        fill: #fff;
      }
    </style>
  </defs>
  <g>
    <path class="cls-11" d="M211.62,132.45c0-2.73.73-4.87,2.2-6.41,1.47-1.54,3.36-2.32,5.68-2.32,1.52,0,2.89.36,4.11,1.09,1.22.73,2.15,1.74,2.79,3.04.64,1.3.96,2.77.96,4.42s-.34,3.16-1.01,4.48c-.67,1.32-1.63,2.31-2.86,2.99-1.23.68-2.57,1.01-3.99,1.01-1.55,0-2.93-.37-4.15-1.12-1.22-.75-2.14-1.77-2.77-3.06-.63-1.29-.94-2.66-.94-4.11ZM213.86,132.49c0,1.98.53,3.54,1.6,4.68,1.07,1.14,2.4,1.71,4.01,1.71s2.99-.58,4.04-1.73c1.06-1.15,1.59-2.79,1.59-4.9,0-1.34-.23-2.51-.68-3.51-.45-1-1.11-1.77-1.99-2.32-.87-.55-1.85-.83-2.93-.83-1.54,0-2.87.53-3.98,1.59-1.11,1.06-1.67,2.83-1.67,5.3Z"/>
    <path class="cls-11" d="M230.13,140.47v-16.45h2.23l8.64,12.92v-12.92h2.09v16.45h-2.23l-8.64-12.93v12.93h-2.09Z"/>
    <path class="cls-11" d="M246.66,140.47v-16.45h2.18v14.51h8.1v1.94h-10.28Z"/>
    <path class="cls-11" d="M259.9,140.47v-16.45h2.18v16.45h-2.18Z"/>
    <path class="cls-11" d="M265.89,140.47v-16.45h2.23l8.64,12.92v-12.92h2.09v16.45h-2.23l-8.64-12.93v12.93h-2.09Z"/>
    <path class="cls-11" d="M282.55,140.47v-16.45h11.89v1.94h-9.72v5.04h9.1v1.93h-9.1v5.6h10.1v1.94h-12.28Z"/>
    <path class="cls-11" d="M304.26,140.47v-16.45h11.89v1.94h-9.72v5.04h9.1v1.93h-9.1v5.6h10.1v1.94h-12.28Z"/>
    <path class="cls-11" d="M319.58,140.47v-16.45h7.29c1.47,0,2.58.15,3.34.44.76.3,1.37.82,1.83,1.57.46.75.68,1.58.68,2.48,0,1.17-.38,2.15-1.13,2.95-.75.8-1.92,1.31-3.5,1.53.58.28,1.01.55,1.31.82.64.58,1.24,1.31,1.81,2.19l2.86,4.48h-2.74l-2.18-3.42c-.64-.99-1.16-1.74-1.57-2.27-.41-.52-.78-.89-1.1-1.1-.33-.21-.66-.36-.99-.44-.25-.05-.65-.08-1.21-.08h-2.52v7.3h-2.18ZM321.76,131.28h4.68c1,0,1.77-.1,2.33-.31.56-.21.99-.54,1.28-.99.29-.45.44-.94.44-1.48,0-.78-.28-1.42-.85-1.92-.56-.5-1.46-.75-2.68-.75h-5.21v5.44Z"/>
    <path class="cls-11" d="M335.4,135.18l2.05-.18c.1.82.32,1.5.68,2.03.36.53.91.95,1.66,1.28.75.33,1.59.49,2.52.49.83,0,1.56-.12,2.2-.37.64-.25,1.11-.58,1.42-1.02s.47-.9.47-1.41-.15-.97-.45-1.35c-.3-.38-.79-.71-1.48-.97-.44-.17-1.42-.44-2.93-.8-1.51-.36-2.57-.71-3.18-1.03-.79-.41-1.37-.92-1.76-1.53-.38-.61-.58-1.29-.58-2.05,0-.83.24-1.61.71-2.33.47-.72,1.16-1.27,2.06-1.64.91-.37,1.91-.56,3.02-.56,1.22,0,2.29.2,3.23.59.93.39,1.65.97,2.15,1.73.5.76.77,1.63.81,2.59l-2.09.16c-.11-1.04-.49-1.82-1.14-2.36-.65-.53-1.6-.8-2.87-.8s-2.28.24-2.88.72c-.6.48-.9,1.06-.9,1.75,0,.59.21,1.08.64,1.46.42.38,1.51.77,3.28,1.17,1.77.4,2.98.75,3.64,1.05.96.44,1.66,1,2.12,1.68.46.68.68,1.46.68,2.34s-.25,1.7-.75,2.47c-.5.77-1.22,1.38-2.16,1.81-.94.43-2,.65-3.17.65-1.49,0-2.74-.22-3.74-.65-1.01-.43-1.79-1.09-2.37-1.96-.57-.87-.87-1.86-.9-2.96Z"/>
    <path class="cls-11" d="M355.65,140.47v-14.51h-5.42v-1.94h13.04v1.94h-5.44v14.51h-2.18Z"/>
    <path class="cls-11" d="M365.55,140.47v-16.45h11.89v1.94h-9.72v5.04h9.1v1.93h-9.1v5.6h10.1v1.94h-12.28Z"/>
    <path class="cls-11" d="M380.74,140.47v-16.45h2.18v14.51h8.1v1.94h-10.28Z"/>
    <path class="cls-11" d="M393.52,140.47v-16.45h2.18v14.51h8.1v1.94h-10.28Z"/>
    <path class="cls-11" d="M406.44,140.47v-16.45h11.89v1.94h-9.72v5.04h9.1v1.93h-9.1v5.6h10.1v1.94h-12.28Z"/>
    <path class="cls-11" d="M421.7,140.47v-16.45h2.23l8.64,12.92v-12.92h2.09v16.45h-2.23l-8.64-12.93v12.93h-2.09Z"/>
  </g>
  <polygon class="cls-2" points="22.94 102.36 22.94 95.69 7.29 95.69 7.29 87.96 25 87.96 25 81.63 0 81.63 0 116.04 26.63 116.04 26.63 109.71 7.29 109.71 7.29 102.36 22.94 102.36"/>
  <polygon class="cls-2" points="55.27 116.04 61.65 116.04 61.65 81.68 55.27 81.68 55.27 103.05 39.95 81.68 31.32 81.68 31.32 116.04 37.89 116.04 37.89 92.37 55.27 116.04"/>
  <polygon class="cls-2" points="89.59 102.36 89.59 95.69 73.95 95.69 73.95 87.96 91.66 87.96 91.66 81.63 66.66 81.63 66.66 116.04 93.29 116.04 93.29 109.71 73.95 109.71 73.95 102.36 89.59 102.36"/>
  <path class="cls-2" d="M112.08,87.62c1.85-.06,3.4.23,4.64.89,1.24.66,1.89,2.08,1.94,4.24-.05,2.13-.7,3.54-1.94,4.23-1.24.69-2.79,1.01-4.64.96h-5.86v-10.33h5.86ZM117.89,103.37c2.84-.7,4.91-2.04,6.22-4.02,1.31-1.99,1.95-4.18,1.94-6.58.01-1.89-.38-3.66-1.18-5.32-.8-1.66-2.08-3.01-3.83-4.05-1.76-1.04-4.07-1.58-6.94-1.61h-15.45v34.27h7.58v-12.29h3.7l8.64,12.29h9.21l-9.59-12.67h-.29Z"/>
  <path class="cls-2" d="M165.77,97.75c-3.01,0-6.06,0-9.16-.02-3.09-.02-5.88-.02-8.36-.03v6.34s.11.04.33.04c.22,0,.56,0,1.01,0,1.03,0,2.24,0,3.62-.02,1.38-.02,2.49-.02,3.34-.03h.77c-.75,1.64-1.95,2.92-3.62,3.82-1.66.9-3.48,1.36-5.45,1.37-2.95-.07-5.4-1.07-7.34-3.01-1.94-1.94-2.95-4.39-3.02-7.37.07-2.95,1.08-5.4,3.02-7.35,1.94-1.95,4.39-2.95,7.34-3.03,1.94.02,3.68.47,5.21,1.37,1.54.89,2.76,2.12,3.67,3.67,1.08-.54,1.93-.97,2.54-1.28.61-.31,1.2-.61,1.77-.9.57-.29,1.34-.69,2.31-1.18-1.58-2.71-3.72-4.87-6.42-6.51-2.7-1.63-5.73-2.47-9.08-2.51-3.29.04-6.26.85-8.92,2.43-2.66,1.58-4.78,3.7-6.36,6.36-1.58,2.66-2.39,5.63-2.42,8.92.04,3.3.85,6.29,2.42,8.96,1.58,2.67,3.7,4.79,6.36,6.37,2.66,1.58,5.64,2.39,8.92,2.43,3.38-.04,6.44-.88,9.18-2.54,2.74-1.65,4.86-3.87,6.37-6.67.58-.83,1.02-1.93,1.3-3.3.28-1.37.47-2.68.55-3.91.09-1.23.12-2.04.12-2.44Z"/>
  <rect class="cls-12" x="169.8" y="81.77" width="7.53" height="34.27"/>
  <polygon class="cls-2" points="206.03 102.36 206.03 95.69 190.38 95.69 190.38 87.96 208.1 87.96 208.1 81.63 183.09 81.63 183.09 116.04 209.73 116.04 209.73 109.71 190.38 109.71 190.38 102.36 206.03 102.36"/>
  <path class="cls-2" d="M231.3,88.22l5.57,13.28h-11.38l5.76-13.28h.05ZM218.68,116.04l3.6-7.58h17.33l3.36,7.58h7.3l-15.31-34.27h-7.58l-15.55,34.27h6.86Z"/>
  <path class="cls-2" d="M282.88,81.77h-7.53v21.31c.04,2.56-.47,4.44-1.54,5.64-1.06,1.21-2.92,1.8-5.57,1.79-2.01-.02-3.52-.39-4.54-1.1-1.02-.71-1.7-1.62-2.04-2.75-.34-1.12-.5-2.32-.47-3.59v-21.31h-7.53v21.31c.03,4.67,1.3,8.13,3.82,10.39,2.52,2.26,6.11,3.39,10.77,3.38,4.62,0,8.21-1.13,10.76-3.41,2.55-2.28,3.84-5.73,3.88-10.36v-21.31Z"/>
  <path class="cls-2" d="M287.17,104.68c.04,2.81.73,5.11,2.08,6.91,1.35,1.8,3.12,3.13,5.32,3.99,2.2.86,4.6,1.29,7.2,1.28,4.69-.07,8.23-1.11,10.64-3.13,2.4-2.03,3.61-4.64,3.62-7.84-.08-2.56-.77-4.52-2.07-5.9-1.3-1.37-2.75-2.35-4.33-2.94-1.58-.58-2.84-.96-3.77-1.13-2.83-.67-4.99-1.23-6.47-1.69-1.48-.46-2.49-.95-3.01-1.47-.53-.52-.77-1.19-.74-2.01.07-1.42.63-2.43,1.69-3.02,1.06-.59,2.23-.88,3.49-.86,1.25-.08,2.56.11,3.93.57,1.36.46,2.31,1.64,2.85,3.55l7.29,1.05c-.04-2.62-.69-4.75-1.97-6.37-1.28-1.62-2.95-2.81-5.02-3.55-2.07-.74-4.32-1.11-6.74-1.1-2.11,0-4.13.37-6.07,1.12-1.94.75-3.54,1.89-4.79,3.42-1.25,1.53-1.9,3.47-1.95,5.82.05,2.52.76,4.46,2.12,5.81,1.36,1.36,3.05,2.37,5.06,3.03,2.01.66,4.03,1.22,6.04,1.66,2.01.44,3.7,1.01,5.06,1.71,1.36.7,2.07,1.75,2.12,3.17-.03,1.15-.41,2.04-1.14,2.66-.73.62-1.6,1.04-2.63,1.28-1.02.23-1.99.34-2.9.33-.96.02-1.97-.09-3.03-.33-1.07-.24-2.02-.73-2.86-1.47-.84-.74-1.41-1.85-1.69-3.33l-7.29-1.2Z"/>
  <polygon class="cls-2" points="362.31 81.77 354.92 81.77 349.88 105.43 349.21 105.39 343.35 81.77 336.29 81.77 330.34 105.1 329.67 105.19 324.82 81.77 317.29 81.77 326.36 116.04 333.99 116.04 339.7 92.72 339.8 92.72 345.61 116.04 353.09 116.04 362.31 81.77"/>
  <polygon class="cls-2" points="387.81 102.36 387.81 95.69 372.16 95.69 372.16 87.96 389.88 87.96 389.88 81.63 364.87 81.63 364.87 116.04 391.51 116.04 391.51 109.71 372.16 109.71 372.16 102.36 387.81 102.36"/>
  <rect class="cls-12" x="396.86" y="81.77" width="7.53" height="34.27"/>
  <path class="cls-2" d="M408.86,104.68c.04,2.81.73,5.11,2.08,6.91,1.35,1.8,3.12,3.13,5.32,3.99,2.2.86,4.6,1.29,7.2,1.28,4.69-.07,8.23-1.11,10.64-3.13,2.4-2.03,3.61-4.64,3.62-7.84-.08-2.56-.77-4.52-2.07-5.9-1.3-1.37-2.75-2.35-4.33-2.94-1.58-.58-2.84-.96-3.77-1.13-2.83-.67-4.99-1.23-6.47-1.69-1.48-.46-2.49-.95-3.01-1.47-.53-.52-.77-1.19-.74-2.01.07-1.42.63-2.43,1.69-3.02,1.06-.59,2.23-.88,3.49-.86,1.25-.08,2.56.11,3.93.57,1.36.46,2.31,1.64,2.85,3.55l7.29,1.05c-.04-2.62-.69-4.75-1.97-6.37-1.28-1.62-2.95-2.81-5.02-3.55-2.07-.74-4.32-1.11-6.74-1.1-2.11,0-4.13.37-6.07,1.12-1.94.75-3.54,1.89-4.79,3.42-1.25,1.53-1.9,3.47-1.95,5.82.05,2.52.76,4.46,2.12,5.81,1.36,1.36,3.05,2.37,5.06,3.03,2.01.66,4.03,1.22,6.04,1.66,2.01.44,3.7,1.01,5.06,1.71,1.36.7,2.07,1.75,2.12,3.17-.03,1.15-.41,2.04-1.14,2.66-.73.62-1.6,1.04-2.63,1.28-1.02.23-1.99.34-2.9.33-.96.02-1.97-.09-3.03-.33-1.07-.24-2.02-.73-2.86-1.47-.84-.74-1.41-1.85-1.69-3.33l-7.29-1.2Z"/>
  <polygon class="cls-5" points="102.81 3.08 97.95 8.77 97.95 75.36 107.91 75.36 107.67 8.77 102.81 3.08"/>
  <polygon class="cls-6" points="91.22 9.13 86.36 14.81 86.36 76.07 96.31 75.72 96.08 14.81 91.22 9.13"/>
  <polygon class="cls-8" points="79.37 14.22 74.51 19.91 74.51 76.43 84.46 76.19 84.23 19.91 79.37 14.22"/>
  <polygon class="cls-7" points="67.87 19.67 63.02 25.36 63.02 75.95 72.97 75.84 72.73 25.36 67.87 19.67"/>
  <polygon class="cls-4" points="55.91 25.83 51.05 31.52 51.05 76.19 61 76.19 60.76 31.52 55.91 25.83"/>
  <polygon class="cls-1" points="44.06 31.17 39.2 36.85 39.2 76.43 49.15 76.31 48.92 36.85 44.06 31.17"/>
  <polygon class="cls-3" points="32.09 37.45 27.23 43.13 27.23 76.55 37.18 76.19 36.95 43.13 32.09 37.45"/>
  <polygon class="cls-3" points="112.56 0 187.45 40.29 187.45 75.36 112.56 75.84 112.56 0"/>
  <polygon class="cls-1" points="208.06 71.35 0 71.35 0 77.55 208.06 76.89 208.06 71.35"/>
  <rect class="cls-10" x="124.21" y="42.73" width="28.67" height="5.78"/>
  <rect class="cls-13" x="136.5" y="41.09" width="18" height="18"/>
  <rect class="cls-10" x="143" y="35.84" width="4.5" height="25"/>
  <rect class="cls-10" x="133.19" y="47.67" width="25" height="4.5"/>
  <path class="cls-9" d="M441.29,116.86v-6.86h6.86v6.86h-6.86Z"/>
  <path class="cls-9" d="M453.65,81.06h13.21c2.98,0,5.25.23,6.81.68,2.1.62,3.9,1.72,5.4,3.3,1.5,1.58,2.64,3.51,3.42,5.8s1.17,5.11,1.17,8.46c0,2.95-.37,5.49-1.1,7.62-.9,2.6-2.17,4.71-3.83,6.32-1.25,1.22-2.95,2.17-5.08,2.86-1.6.5-3.73.76-6.4.76h-13.6v-35.79ZM460.87,87.12v23.71h5.4c2.02,0,3.47-.11,4.37-.34,1.17-.29,2.14-.79,2.92-1.49.77-.7,1.4-1.85,1.89-3.46.49-1.6.73-3.79.73-6.55s-.24-4.89-.73-6.37c-.49-1.48-1.17-2.64-2.05-3.47s-1.99-1.39-3.34-1.68c-1.01-.23-2.99-.34-5.93-.34h-3.25Z"/>
  <polygon class="cls-2" points="511.95 102.36 511.95 95.69 496.3 95.69 496.3 87.96 514.01 87.96 514.01 81.63 489.01 81.63 489.01 116.04 515.64 116.04 515.64 109.71 496.3 109.71 496.3 102.36 511.95 102.36"/>
</svg>