<?xml version="1.0" encoding="UTF-8"?>
<svg id="Ebene_1" data-name="Ebene 1" xmlns="http://www.w3.org/2000/svg" xmlns:xlink="http://www.w3.org/1999/xlink" viewBox="0 0 225.93 119.62">
  <defs>
    <style>
      .cls-1 {
        filter: url(#drop-shadow-1);
      }

      .cls-1, .cls-2 {
        fill: #fff;
      }

      .cls-1, .cls-2, .cls-3, .cls-4, .cls-5 {
        stroke-width: 0px;
      }

      .cls-3 {
        fill: #253786;
      }

      .cls-4 {
        fill: #3b368b;
      }

      .cls-5 {
        fill: #d2dbe5;
      }
    </style>
    <filter id="drop-shadow-1" filterUnits="userSpaceOnUse">
      <feOffset dx="0" dy="1.42"/>
      <feGaussianBlur result="blur" stdDeviation="1.42"/>
      <feFlood flood-color="#010101" flood-opacity=".3"/>
      <feComposite in2="blur" operator="in"/>
      <feComposite in="SourceGraphic"/>
    </filter>
  </defs>
  <rect class="cls-5" x=".02" y=".03" width="225.9" height="119.55"/>
  <g>
    <path class="cls-3" d="M103.28,28.56c-1.88,0-3.27-.56-4.16-1.67s-1.33-2.83-1.33-5.16.49-4.03,1.48-5.15c.99-1.12,2.51-1.67,4.56-1.67.41,0,.85.03,1.34.09.49.06.98.15,1.48.27v2.03c-.54-.1-1.02-.17-1.43-.23s-.8-.08-1.14-.08c-.68,0-1.26.08-1.74.24-.47.16-.86.43-1.15.8-.29.37-.5.86-.63,1.47s-.19,1.35-.19,2.24.06,1.63.17,2.23c.11.6.3,1.08.55,1.45.25.37.58.63.99.79.41.16.91.24,1.51.24.14,0,.29,0,.44,0,.15,0,.31-.01.48-.03v-4.81h2.29v6.64c-.79.11-1.46.18-1.99.23-.53.04-1.05.06-1.54.06Z"/>
    <path class="cls-3" d="M112.53,28.56c-1.38,0-2.43-.41-3.14-1.24s-1.07-2.05-1.07-3.65c0-1.7.35-2.99,1.05-3.85.7-.86,1.75-1.3,3.14-1.3,1.18,0,2.04.37,2.6,1.1.56.73.84,1.87.84,3.4,0,.34,0,.6-.02.78-.01.19-.03.38-.05.58h-5.08c.06.86.23,1.46.5,1.79.28.33.73.5,1.37.5.35,0,.77-.04,1.26-.13.49-.08,1.02-.21,1.58-.38l.09,1.84c-.42.17-.91.3-1.48.4-.56.1-1.1.15-1.6.15ZM112.44,20.37c-.5,0-.89.19-1.15.57-.26.38-.43,1-.49,1.86h2.95c-.02-.88-.13-1.5-.33-1.87-.2-.37-.53-.56-.98-.56Z"/>
    <path class="cls-3" d="M117.57,18.68h2.25l.11.97h.07c.29-.36.64-.64,1.06-.84.42-.2.89-.3,1.4-.3,2.06,0,3.1,1.57,3.1,4.72,0,.82-.09,1.55-.26,2.21-.17.65-.44,1.21-.8,1.67-.36.46-.82.82-1.39,1.07s-1.24.38-2.02.38c-.16,0-.32,0-.49-.02-.17-.01-.36-.04-.58-.07v3.89h-2.47v-13.68ZM121.12,26.9c.35,0,.65-.06.89-.17.25-.11.44-.3.59-.57.15-.26.26-.61.33-1.04.07-.43.11-.97.11-1.6s-.03-1.12-.08-1.54c-.05-.41-.14-.75-.25-1s-.27-.43-.46-.54c-.19-.11-.42-.16-.68-.16-.24,0-.45.05-.64.15-.19.1-.35.27-.48.49-.13.23-.23.53-.31.9s-.11.83-.11,1.37v3.51c.34.13.7.2,1.08.2Z"/>
    <path class="cls-3" d="M127.2,18.68h2.09l.14,1.35h.13c.06-.08.18-.19.36-.33.18-.14.39-.28.63-.42s.5-.28.77-.41c.27-.13.52-.25.76-.34h.47v2.36h-.99c-.18.02-.36.07-.55.13-.19.06-.37.13-.54.2-.17.07-.33.15-.47.24s-.25.18-.33.26v6.7h-2.47v-9.72Z"/>
    <path class="cls-3" d="M136.22,28.58c-.78,0-1.38-.23-1.81-.68-.43-.45-.64-1.09-.64-1.92v-7.31h2.47v6.53c0,.46.08.78.23.96.16.19.41.28.76.28.24,0,.49-.05.75-.15.26-.1.56-.27.91-.51v-7.11h2.47v9.72h-2.09l-.14-.99h-.07c-.34.23-.63.42-.88.57s-.49.27-.7.36-.42.15-.62.19c-.2.04-.4.05-.62.05ZM135.63,17.27c-.43,0-.75-.1-.95-.29-.2-.19-.31-.5-.31-.94,0-.82.42-1.22,1.26-1.22.42,0,.74.1.95.29.22.19.32.5.32.94s-.11.74-.32.94c-.22.19-.53.29-.95.29ZM139.52,17.27c-.43,0-.75-.1-.95-.29-.2-.19-.31-.5-.31-.94,0-.82.42-1.22,1.26-1.22.42,0,.73.1.94.29.21.19.32.5.32.94s-.11.74-.32.94c-.21.19-.52.29-.94.29Z"/>
    <path class="cls-3" d="M152.87,28.51c-.98,0-1.72-.23-2.22-.69s-.75-1.14-.75-2.04v-5.02h-3.42v7.65h-2.47v-7.65h-1.31v-2.07h1.33v-.54c0-.8.08-1.48.22-2.02.15-.54.41-.98.77-1.32.36-.34.84-.59,1.43-.76s1.33-.26,2.21-.3l.14,1.87c-.47.04-.85.1-1.15.18-.3.08-.54.21-.71.39s-.29.4-.36.68c-.07.28-.1.64-.1,1.07v.74h3.56l.32-2.68,1.98-.27v2.95h2.03v2.09h-2.02v4.43c0,.53.09.9.28,1.12.19.22.46.33.84.33.13,0,.27,0,.42-.03.15-.02.31-.05.48-.1v1.8c-.24.06-.49.1-.75.13-.26.03-.51.04-.76.04Z"/>
    <path class="cls-3" d="M159.64,28.56c-1.38,0-2.43-.41-3.14-1.24-.71-.83-1.07-2.05-1.07-3.65,0-1.7.35-2.99,1.05-3.85.7-.86,1.75-1.3,3.14-1.3,1.18,0,2.04.37,2.6,1.1.56.73.84,1.87.84,3.4,0,.34,0,.6-.02.78-.01.19-.03.38-.05.58h-5.08c.06.86.23,1.46.5,1.79.28.33.73.5,1.37.5.35,0,.77-.04,1.26-.13.49-.08,1.02-.21,1.58-.38l.09,1.84c-.42.17-.91.3-1.48.4-.56.1-1.1.15-1.6.15ZM159.55,20.37c-.5,0-.89.19-1.15.57s-.43,1-.49,1.86h2.95c-.02-.88-.13-1.5-.33-1.87-.2-.37-.52-.56-.98-.56Z"/>
    <path class="cls-3" d="M167.14,28.58c-.85,0-1.78-.16-2.77-.47v-1.84c.38.14.82.26,1.31.34.49.08.95.13,1.39.13.88,0,1.31-.35,1.31-1.06,0-.31-.09-.56-.28-.74-.19-.18-.49-.31-.91-.4-.29-.05-.59-.11-.92-.19-.32-.08-.63-.22-.91-.41-.28-.2-.51-.49-.69-.86s-.27-.89-.27-1.54c0-.97.28-1.72.84-2.25.56-.53,1.35-.79,2.37-.79.4,0,.82.03,1.27.09s.92.14,1.39.25v1.84c-.54-.13-.96-.22-1.27-.25-.31-.04-.6-.05-.87-.05-.46,0-.81.09-1.06.28-.25.19-.38.45-.38.78,0,.38.11.65.32.8.22.15.5.26.85.33.34.07.68.16,1.02.26s.65.25.93.46.5.48.67.84.26.82.26,1.4c0,.96-.32,1.71-.95,2.25-.64.54-1.52.81-2.65.81Z"/>
    <path class="cls-3" d="M103.07,47.93c-1.78,0-3.1-.56-3.96-1.68-.86-1.12-1.3-2.83-1.3-5.14s.43-4.04,1.3-5.17c.86-1.13,2.18-1.69,3.96-1.69s3.12.56,3.99,1.69c.87,1.13,1.31,2.85,1.31,5.17s-.43,4.03-1.3,5.15c-.86,1.12-2.2,1.67-4,1.67ZM103.07,45.82c.49,0,.91-.08,1.25-.25.34-.17.62-.44.84-.82s.37-.86.47-1.46c.1-.59.14-1.32.14-2.19s-.05-1.6-.14-2.21c-.1-.61-.25-1.1-.47-1.48-.22-.38-.5-.65-.84-.83-.34-.17-.76-.26-1.25-.26s-.89.09-1.23.26c-.34.17-.62.45-.84.83-.22.38-.37.87-.47,1.48-.1.61-.14,1.34-.14,2.21s.05,1.58.14,2.18c.1.6.25,1.09.47,1.47.22.38.49.65.83.82.34.17.75.25,1.24.25Z"/>
    <path class="cls-3" d="M110.05,38.03h2.09l.14,1.04h.07c.36-.23.68-.42.95-.59.28-.16.53-.29.77-.38.24-.09.47-.16.69-.2.22-.04.45-.06.69-.06.71,0,1.24.22,1.61.67s.55,1.09.55,1.93v7.31h-2.45v-6.48c0-.46-.08-.78-.24-.97-.16-.19-.39-.29-.68-.29-.26,0-.54.06-.84.17-.29.11-.6.27-.91.48v7.09h-2.47v-9.72Z"/>
    <path class="cls-3" d="M119.63,33.2h2.47v14.54h-2.47v-14.54Z"/>
    <path class="cls-3" d="M125.37,36.46c-.49,0-.85-.11-1.06-.32-.22-.22-.32-.56-.32-1.04s.11-.83.32-1.04c.22-.22.57-.32,1.06-.32s.85.11,1.07.33c.22.22.33.57.33,1.04s-.11.81-.32,1.03c-.22.22-.58.33-1.08.33ZM124.14,38.03h2.45v9.72h-2.45v-9.72Z"/>
    <path class="cls-3" d="M128.63,38.03h2.09l.14,1.04h.07c.36-.23.68-.42.95-.59.28-.16.53-.29.77-.38.24-.09.47-.16.69-.2.22-.04.45-.06.69-.06.71,0,1.25.22,1.61.67.37.44.55,1.09.55,1.93v7.31h-2.45v-6.48c0-.46-.08-.78-.24-.97-.16-.19-.39-.29-.67-.29-.26,0-.54.06-.84.17s-.6.27-.91.48v7.09h-2.47v-9.72Z"/>
    <path class="cls-3" d="M142.02,47.91c-1.38,0-2.43-.41-3.14-1.24-.71-.83-1.07-2.05-1.07-3.65,0-1.7.35-2.99,1.05-3.85.7-.86,1.75-1.3,3.14-1.3,1.18,0,2.04.37,2.6,1.1.56.73.84,1.87.84,3.4,0,.34,0,.6-.02.78-.01.19-.03.38-.05.58h-5.08c.06.86.23,1.46.5,1.79.28.33.73.5,1.37.5.35,0,.77-.04,1.26-.13.49-.08,1.02-.21,1.58-.38l.09,1.84c-.42.17-.91.3-1.48.4-.56.1-1.1.15-1.6.15ZM141.93,39.72c-.5,0-.89.19-1.15.57s-.43,1-.49,1.86h2.95c-.02-.88-.13-1.5-.33-1.87-.2-.37-.52-.56-.98-.56Z"/>
    <path class="cls-3" d="M147.06,38.03h2.25l.11.97h.07c.29-.36.64-.64,1.06-.84.42-.2.89-.3,1.4-.3,2.06,0,3.1,1.57,3.1,4.72,0,.82-.09,1.55-.26,2.21-.17.65-.44,1.21-.8,1.67-.36.46-.82.82-1.39,1.07s-1.24.38-2.02.38c-.16,0-.32,0-.49-.02-.17-.01-.36-.04-.58-.07v3.89h-2.47v-13.68ZM150.6,46.25c.35,0,.65-.06.89-.17.25-.11.44-.3.59-.57.15-.26.26-.61.33-1.04.07-.43.11-.97.11-1.6s-.03-1.12-.08-1.54c-.05-.41-.14-.75-.25-1s-.27-.43-.46-.54c-.19-.11-.42-.16-.68-.16-.24,0-.45.05-.64.15-.19.1-.35.27-.48.49-.13.23-.23.53-.31.9s-.11.83-.11,1.37v3.51c.34.13.7.2,1.08.2Z"/>
    <path class="cls-3" d="M160.45,47.93c-1.37,0-2.4-.43-3.1-1.28-.7-.85-1.04-2.11-1.04-3.76s.35-2.93,1.04-3.77c.7-.85,1.73-1.27,3.1-1.27s2.4.42,3.1,1.27c.7.85,1.04,2.1,1.04,3.77s-.35,2.92-1.04,3.77c-.7.85-1.73,1.27-3.1,1.27ZM160.45,46.02c.31,0,.58-.05.79-.14.22-.1.39-.26.52-.5.13-.24.22-.56.28-.96.05-.4.08-.91.08-1.52s-.03-1.12-.08-1.52c-.05-.4-.15-.72-.28-.96-.13-.24-.31-.41-.52-.5-.22-.1-.48-.14-.79-.14s-.58.05-.79.14c-.22.1-.39.26-.51.5-.13.24-.22.56-.27.96-.05.4-.08.91-.08,1.52s.03,1.1.08,1.5c.05.4.14.72.27.96.13.24.3.41.51.51s.48.15.79.15Z"/>
    <path class="cls-3" d="M166.25,38.03h2.09l.14,1.35h.13c.06-.08.18-.19.36-.33.18-.14.39-.28.63-.42s.5-.28.77-.41c.27-.13.52-.25.76-.34h.47v2.36h-.99c-.18.02-.36.07-.55.13-.19.06-.37.13-.54.2-.17.07-.33.15-.47.24s-.25.18-.33.26v6.7h-2.47v-9.72Z"/>
    <path class="cls-3" d="M176.61,47.86c-.98,0-1.73-.23-2.22-.69-.5-.46-.75-1.14-.75-2.04v-5h-1.51v-2.09h1.66l.32-2.68,1.98-.27v2.95h2.03v2.09h-2.02v4.43c0,.53.09.9.28,1.12.19.22.47.33.84.33.13,0,.27,0,.42-.03.15-.02.31-.05.48-.1v1.8c-.24.06-.49.1-.75.13-.26.03-.51.04-.76.04Z"/>
    <path class="cls-3" d="M181.58,47.84c-.78,0-1.4-.25-1.87-.76-.47-.51-.7-1.19-.7-2.03,0-1.85,1.15-2.86,3.46-3.02l1.66-.11v-.31c0-.37-.02-.68-.07-.92-.05-.24-.13-.43-.26-.58s-.3-.24-.51-.3c-.22-.05-.49-.08-.81-.08-.13,0-.31,0-.53.03-.22.02-.46.04-.7.06s-.49.05-.72.08c-.23.03-.43.06-.58.1l-.16-1.8c.52-.1,1.04-.17,1.58-.23s1.04-.09,1.5-.09c1.31,0,2.26.24,2.85.73.59.49.89,1.27.89,2.35v6.79h-2.03l-.2-1.17h-.14c-.31.35-.7.65-1.15.89s-.95.37-1.48.37ZM182.5,46.02c.26,0,.54-.08.84-.24.29-.16.55-.32.78-.48v-1.87l-1.12.11c-.56.06-.96.19-1.2.39-.23.2-.35.5-.35.91,0,.38.09.68.27.88.18.2.44.31.77.31Z"/>
    <path class="cls-3" d="M188.57,33.2h2.47v14.54h-2.47v-14.54Z"/>
  </g>
  <path class="cls-1" d="M4.76,92.37v22.41h216.42v-22.41H4.76Z"/>
  <g>
    <path class="cls-3" d="M14.64,106.86c-1.12,0-1.68-.56-1.68-1.68v-3.66h-1.21v-.83h1.25l.13-1.52.76-.11v1.64h1.71v.83h-1.71v3.46c0,.74.33,1.11,1,1.11.11,0,.22,0,.35-.03.13-.02.25-.05.38-.08v.76c-.35.08-.68.12-.99.12Z"/>
    <path class="cls-3" d="M18.54,106.9c-1.01,0-1.51-.55-1.51-1.65v-4.56h.95v4.29c0,.4.07.68.2.84.13.16.36.24.69.24s.65-.07.98-.2c.33-.13.67-.29,1.03-.49v-4.68h.95v6.09h-.79l-.07-.71h-.04c-.28.14-.52.27-.73.37-.21.11-.4.19-.58.26-.18.07-.35.12-.52.15-.17.03-.35.05-.55.05Z"/>
    <path class="cls-3" d="M26.26,106.89c-.88,0-1.55-.26-2-.78-.45-.52-.68-1.28-.68-2.28,0-1.05.22-1.86.67-2.41.44-.55,1.09-.83,1.94-.83,1.46,0,2.19.9,2.19,2.7,0,.17,0,.32-.02.45-.01.13-.02.24-.04.35h-3.79c.04.71.2,1.22.49,1.55.29.32.73.48,1.33.48.27,0,.55-.03.85-.08.3-.06.6-.14.9-.25l.06.74c-.27.11-.58.2-.91.27-.34.06-.67.1-.98.1ZM26.17,101.33c-1.01,0-1.56.69-1.64,2.06h2.98c-.02-.74-.14-1.26-.34-1.58-.21-.32-.54-.48-1-.48Z"/>
    <path class="cls-3" d="M29.39,100.79v-.1h.98l1.52,4.48.23.81h.11l.23-.81,1.53-4.48h.96v.1l-2.17,5.99h-1.23l-2.17-5.99Z"/>
    <path class="cls-3" d="M36.21,103.23h3.28v.79h-3.28v-.79Z"/>
    <path class="cls-3" d="M43.02,106.91c-.26,0-.53-.02-.82-.06-.29-.04-.64-.11-1.07-.2v-.77c.32.08.64.15.95.2.31.05.61.08.89.08.41,0,.73-.09.95-.27s.33-.42.33-.74c0-.34-.1-.58-.31-.73-.21-.15-.5-.27-.86-.35-.21-.04-.43-.1-.65-.15-.22-.06-.42-.14-.61-.26-.18-.12-.33-.29-.45-.5-.12-.21-.17-.5-.17-.86,0-.54.19-.97.56-1.28.37-.31.89-.47,1.54-.47.12,0,.24,0,.35.01.11,0,.23.02.36.04.13.02.27.04.42.07s.33.06.52.1l-.03.78c-.35-.08-.65-.13-.88-.17-.23-.04-.45-.06-.64-.06-.41,0-.73.08-.95.25-.22.17-.33.4-.33.71,0,.18.03.33.1.45.07.12.16.22.27.29.11.08.25.13.41.18.16.05.33.09.51.12.26.06.49.13.71.21.21.08.4.19.56.32.16.14.28.3.37.51.09.2.14.46.14.76,0,.56-.19,1-.56,1.31-.38.32-.9.48-1.58.48Z"/>
    <path class="cls-3" d="M48.02,106.84c-.5,0-.89-.14-1.16-.42s-.41-.67-.41-1.18c0-.58.18-1.02.54-1.33.36-.31.93-.49,1.7-.55l1.33-.1v-.5c0-.26-.02-.48-.07-.66-.05-.18-.12-.32-.24-.43-.11-.11-.26-.19-.44-.23-.18-.04-.41-.07-.68-.07-.23,0-.49.02-.78.05-.29.03-.59.08-.9.14l-.08-.74c.36-.06.7-.11,1.02-.14.32-.03.63-.05.92-.05.75,0,1.3.16,1.66.47.35.32.53.81.53,1.48v4.21h-.78l-.1-.76h-.07c-.32.24-.65.44-.99.59s-.67.23-1.02.23ZM48.35,106.1c.13,0,.27-.02.42-.06.14-.04.29-.09.43-.15.15-.06.29-.14.43-.22.14-.08.27-.17.4-.25v-1.55l-1.08.1c-.56.06-.96.18-1.19.35s-.34.45-.34.83c0,.62.31.94.94.94Z"/>
    <path class="cls-3" d="M54.15,106.84c-.5,0-.89-.14-1.16-.42s-.41-.67-.41-1.18c0-.58.18-1.02.54-1.33.36-.31.93-.49,1.7-.55l1.33-.1v-.5c0-.26-.02-.48-.07-.66-.05-.18-.12-.32-.24-.43-.11-.11-.26-.19-.44-.23-.18-.04-.41-.07-.68-.07-.23,0-.49.02-.78.05-.29.03-.59.08-.9.14l-.08-.74c.36-.06.7-.11,1.02-.14.32-.03.63-.05.92-.05.75,0,1.3.16,1.66.47.35.32.53.81.53,1.48v4.21h-.78l-.1-.76h-.07c-.32.24-.65.44-.99.59s-.67.23-1.02.23ZM54.48,106.1c.13,0,.27-.02.42-.06.14-.04.29-.09.43-.15.15-.06.29-.14.43-.22.14-.08.27-.17.4-.25v-1.55l-1.08.1c-.56.06-.96.18-1.19.35s-.34.45-.34.83c0,.62.31.94.94.94Z"/>
    <path class="cls-3" d="M59.12,100.69h.79l.07.8h.06c.33-.2.67-.38,1-.55.34-.17.67-.29.99-.36h.28v.92h-.35c-.33.04-.66.13-.99.25s-.63.26-.91.43v4.59h-.95v-6.09Z"/>
    <path class="cls-3" d="M63.61,106.82c-.2,0-.35-.05-.45-.15-.11-.1-.16-.24-.16-.44,0-.4.2-.6.61-.6.2,0,.35.05.46.15.11.1.16.25.16.45,0,.39-.21.59-.62.59Z"/>
    <path class="cls-3" d="M68.17,106.9c-.77,0-1.36-.25-1.75-.76-.4-.5-.59-1.29-.59-2.35s.26-1.87.77-2.41c.51-.54,1.21-.81,2.09-.81.23,0,.44.01.65.03s.41.05.61.08v-3.02h.95v9.12h-.83l-.08-.7h-.06c-.41.54-.99.81-1.76.81ZM68.39,106.14c.2,0,.4-.03.59-.09.19-.06.35-.15.5-.27s.26-.26.34-.43c.09-.17.13-.36.13-.58v-3.34c-.41-.08-.84-.12-1.29-.12-.62,0-1.09.19-1.4.57-.31.38-.47,1-.47,1.86s.13,1.45.39,1.83.67.57,1.21.57Z"/>
    <path class="cls-3" d="M75.33,106.89c-.88,0-1.55-.26-2-.78-.45-.52-.68-1.28-.68-2.28,0-1.05.22-1.86.67-2.41.44-.55,1.09-.83,1.94-.83,1.46,0,2.19.9,2.19,2.7,0,.17,0,.32-.02.45-.01.13-.02.24-.04.35h-3.79c.04.71.2,1.22.49,1.55.29.32.73.48,1.33.48.27,0,.55-.03.85-.08.3-.06.6-.14.9-.25l.06.74c-.27.11-.58.2-.91.27-.34.06-.67.1-.98.1ZM75.24,101.33c-1.01,0-1.56.69-1.64,2.06h2.98c-.02-.74-.14-1.26-.34-1.58-.21-.32-.54-.48-1-.48Z"/>
    <path class="cls-3" d="M81.17,98.44h.85l-2.45,9.71h-.85l2.45-9.71Z"/>
    <path class="cls-3" d="M85.77,106.92c-.18,0-.38,0-.59-.03-.21-.02-.42-.04-.64-.07-.22-.03-.44-.07-.65-.11-.22-.04-.42-.09-.61-.15l.03-.83c.18.05.38.1.59.15.21.04.42.08.63.12.21.03.41.06.61.08.2.02.39.03.56.03.61,0,1.08-.12,1.4-.37s.49-.6.49-1.07c0-.24-.04-.45-.13-.62-.09-.17-.21-.32-.38-.45-.17-.13-.36-.24-.59-.34s-.48-.19-.76-.27c-.4-.12-.74-.25-1.03-.39-.29-.14-.53-.31-.72-.5-.19-.19-.33-.41-.42-.65-.09-.25-.14-.54-.14-.87s.06-.66.19-.94c.13-.28.31-.52.55-.72.24-.2.53-.35.86-.46.33-.11.71-.16,1.13-.16.3,0,.62.02.95.06.33.04.7.11,1.1.21l-.03.81c-.35-.08-.7-.15-1.04-.2-.34-.05-.65-.07-.91-.07-.56,0-1.01.13-1.33.4-.32.26-.49.62-.49,1.07,0,.2.03.38.1.54.07.16.17.3.32.42s.33.24.56.34.51.21.84.3c.36.11.69.24.98.37.29.14.54.3.74.49.2.19.36.41.47.67s.16.56.16.92c0,.74-.24,1.3-.73,1.7-.48.4-1.17.6-2.06.6Z"/>
    <path class="cls-3" d="M93.62,106.89c-1.24,0-2.16-.36-2.76-1.05-.6-.69-.9-1.76-.9-3.22s.3-2.56.9-3.25c.6-.69,1.52-1.04,2.75-1.04.23,0,.5.01.78.04.29.03.58.07.88.13v.81c-.59-.1-1.11-.16-1.55-.16-.49,0-.91.07-1.26.2s-.64.34-.86.61c-.23.28-.39.64-.5,1.07s-.16.96-.16,1.58c0,1.2.22,2.08.65,2.62.43.55,1.12.82,2.06.82.1,0,.22,0,.36-.01.14,0,.29-.02.44-.04s.3-.04.44-.06c.14-.02.27-.04.37-.07v.8c-.23.06-.49.11-.79.15-.3.04-.59.06-.86.06Z"/>
    <path class="cls-3" d="M96.19,104.26v-.07l2.79-5.87h.06l.86.12.03.09-2.7,5.45v.04h2.76l.27-2.87h.68v2.87h1.11v.77h-1.11v1.99h-.96v-1.99h-3.59l-.2-.54Z"/>
    <path class="cls-3" d="M104.9,106.92c-.25,0-.51-.02-.77-.05-.27-.03-.54-.07-.82-.12v-.79h.2c.46.1.89.15,1.3.15.68,0,1.18-.14,1.52-.42.33-.28.5-.74.5-1.36,0-.3-.05-.55-.14-.76-.09-.21-.24-.37-.45-.5s-.46-.22-.78-.28c-.32-.06-.7-.09-1.14-.1h-.78s-.08-.09-.08-.09l.3-4.16h3.7v.81h-2.94l-.18,2.66c.61,0,1.13.05,1.57.14.44.09.8.23,1.08.42.28.19.49.44.63.75.13.31.2.68.2,1.13s-.07.83-.21,1.15c-.14.32-.33.59-.59.8-.25.21-.56.37-.92.47-.36.1-.76.15-1.21.15Z"/>
    <path class="cls-3" d="M111.87,98.31c.94,0,1.65.32,2.13.96.48.64.72,1.59.72,2.87,0,.76-.08,1.44-.24,2.03-.16.59-.39,1.09-.7,1.5s-.69.71-1.13.93c-.45.21-.96.32-1.55.32-.22,0-.44-.01-.67-.04-.23-.03-.48-.08-.74-.15l.08-.78c.25.07.48.12.69.15s.41.04.62.04c.81,0,1.44-.29,1.89-.86.45-.58.71-1.41.78-2.51-.29.25-.61.44-.96.59-.36.14-.72.21-1.08.21-.38,0-.73-.06-1.04-.17-.31-.11-.58-.27-.8-.49s-.39-.47-.51-.77c-.12-.3-.17-.64-.17-1.01,0-.43.06-.82.19-1.16s.31-.64.54-.89.52-.43.85-.56c.33-.13.71-.2,1.11-.2ZM111.87,102.85c.33,0,.67-.08,1-.23.34-.15.64-.35.89-.59-.02-1.01-.17-1.75-.48-2.22s-.78-.71-1.42-.71c-.53,0-.96.18-1.26.54-.31.36-.46.85-.46,1.48,0,.56.15,1,.45,1.29.3.3.73.45,1.27.45Z"/>
    <path class="cls-3" d="M118.99,106.83c-.87,0-1.53-.18-2-.55-.47-.37-.7-.9-.7-1.6,0-.31.04-.58.13-.82.09-.24.2-.45.33-.63.13-.18.29-.33.46-.46s.35-.23.52-.32c-.36-.19-.65-.44-.87-.75-.22-.31-.33-.73-.33-1.25,0-.34.06-.64.18-.91.12-.27.29-.49.5-.67.21-.18.47-.32.78-.41.3-.09.65-.14,1.02-.14.74,0,1.32.18,1.76.55.44.37.65.9.65,1.6,0,.28-.03.53-.1.74-.07.22-.16.41-.28.58-.12.17-.25.31-.4.43-.15.12-.3.23-.46.32.22.09.42.2.6.32s.34.27.47.43c.13.16.24.35.31.57.08.22.11.47.11.76,0,.71-.24,1.25-.71,1.64-.47.39-1.14.58-2,.58ZM118.48,102.76c-.14.07-.29.15-.44.25s-.29.22-.41.36c-.12.14-.23.31-.3.51s-.12.43-.12.71c0,.5.16.89.49,1.15.32.26.76.39,1.3.39s.98-.12,1.3-.38c.33-.25.49-.61.49-1.09,0-.27-.04-.5-.14-.68-.09-.18-.22-.34-.38-.48-.17-.14-.36-.25-.6-.34-.23-.09-.49-.18-.77-.26l-.42-.12ZM117.42,100.5c0,.26.05.49.14.67.09.18.23.34.39.47.17.13.37.25.6.34s.49.18.77.25l.08.02c.13-.07.27-.15.41-.25.14-.1.26-.22.37-.36.11-.14.2-.31.28-.49.07-.18.11-.4.11-.65,0-.48-.14-.84-.43-1.08-.29-.24-.67-.36-1.15-.36s-.85.12-1.14.37c-.29.24-.43.6-.43,1.08Z"/>
    <path class="cls-3" d="M123.19,105.67c0-.35.04-.67.13-.96.09-.29.22-.55.4-.8s.41-.48.68-.71.6-.45.96-.67c.56-.35.96-.67,1.2-.96.24-.29.37-.63.37-1.02,0-.92-.54-1.39-1.61-1.39-.53,0-1.12.1-1.79.29l-.12-.82c.41-.11.79-.18,1.13-.23s.66-.07.97-.07c1.59,0,2.39.71,2.39,2.13,0,.29-.04.54-.11.77s-.18.45-.34.66c-.15.21-.35.41-.59.61-.24.2-.52.4-.85.6-.33.21-.61.41-.84.6-.23.19-.42.37-.57.56-.15.18-.26.37-.33.56-.07.19-.1.4-.1.63v.5h3.73v.81h-4.72v-1.11Z"/>
  </g>
  <g>
    <rect class="cls-4" x="4.76" y="4.76" width="82.86" height="82.86"/>
    <g>
      <polygon class="cls-2" points="70.74 58.35 81.24 15.19 73.2 15.19 67.25 41.92 64.73 31.33 56.53 31.33 63.59 58.35 70.74 58.35"/>
      <polygon class="cls-2" points="19.83 58.51 28.31 58.51 28.31 29.67 33.25 29.67 33.25 20.72 14.29 20.72 14.29 29.76 19.83 29.76 19.83 58.51"/>
      <rect class="cls-2" x="35.05" y="20.72" width="8.39" height="8.95"/>
      <rect class="cls-2" x="46.83" y="20.72" width="8.39" height="8.95"/>
      <path class="cls-2" d="M42.66,58.53h12.56v-27.2h-8.47v18.94h-1.55c-1.46,0-1.74-.76-1.74-1.74v-17.2h-8.42v18.85c0,6.18,3,8.35,7.62,8.35Z"/>
      <path class="cls-2" d="M24.68,62.84l-2.3,12.46h2.07l.38-2.76h2.35l.38,2.76h2.07l-2.29-12.46h-2.66ZM25.15,70.67l.85-5.35h.03l.85,5.35h-1.73Z"/>
      <path class="cls-2" d="M56.01,62.84l-2.29,12.46h2.07l.38-2.76h2.35l.38,2.76h2.07l-2.3-12.46h-2.66ZM56.48,70.67l.84-5.35h.03l.85,5.35h-1.72Z"/>
      <polygon class="cls-2" points="49.47 62.84 47.33 62.84 47.33 75.29 52.83 75.29 52.83 73.43 49.47 73.43 49.47 62.84"/>
      <path class="cls-2" d="M73.63,62.84h-3.17v12.46h3.17c2.21,0,3.38-1.21,3.38-3.76v-4.94c0-2.55-1.17-3.76-3.38-3.76ZM74.87,71.79c0,1.31-.4,1.74-1.54,1.74h-.74v-8.94h.74c1.14,0,1.54.43,1.54,1.74v5.45Z"/>
      <path class="cls-2" d="M17.23,65.75c0-.78.38-1.22,1.07-1.22.48,0,1.05.31,1.14,1.38l2.04-.22c-.19-1.76-1.23-3.02-2.97-3.02-2.1,0-3.31,1.12-3.31,3.11,0,3.57,4.35,4.23,4.35,6.69,0,.74-.5,1.14-1.24,1.14-.69,0-1.19-.62-1.28-1.88l-2.04.29c.09,1.86,1.22,3.45,3.21,3.45s3.38-1.14,3.38-3.19c0-3.38-4.35-4.4-4.35-6.52Z"/>
      <path class="cls-2" d="M45.61,66.51c0-2.66-1.23-3.68-3.62-3.68h-3v12.46h2.14v-5.11c.38,0,.83-.02,1.1-.05l1.52,5.16h2.18l-1.81-5.64c.72-.33,1.5-1.14,1.5-3.14ZM41.89,68.43h-.76v-3.83h.76c1.16,0,1.59.43,1.59,1.91s-.43,1.92-1.59,1.92Z"/>
      <path class="cls-2" d="M32.79,62.84l-2.29,12.46h2.07l.38-2.76h2.35l.38,2.76h2.07l-2.3-12.46h-2.66ZM33.26,70.67l.85-5.35h.03l.84,5.35h-1.72Z"/>
      <polygon class="cls-2" points="66.83 69.96 66.8 69.96 64.19 62.84 62.21 62.84 62.21 75.29 64.14 75.29 64.14 67.51 64.18 67.51 66.9 75.29 68.77 75.29 68.77 62.84 66.83 62.84 66.83 69.96"/>
    </g>
  </g>
  <g>
    <path class="cls-3" d="M97.87,66.57h.91v9.18h-.91v-9.18Z"/>
    <path class="cls-3" d="M100.59,69.06h.78l.06.72h.05c.42-.29.8-.5,1.14-.64.34-.14.67-.21.98-.21.51,0,.88.14,1.1.41.22.27.33.72.33,1.35v5.06h-.91v-4.85c0-.42-.07-.72-.2-.89-.13-.17-.34-.26-.63-.26-.26,0-.55.06-.85.18-.3.12-.62.29-.95.51v5.31h-.91v-6.7Z"/>
    <path class="cls-3" d="M107.01,69.84h-.93v-.78h.93v-.48c0-.52.04-.96.12-1.3.08-.35.21-.63.39-.85.18-.22.43-.38.73-.49.31-.11.69-.18,1.15-.22l.04.73c-.31.03-.56.09-.76.16-.2.07-.35.19-.46.35-.11.16-.19.36-.24.61-.04.25-.07.57-.07.96v.53h1.24v.78h-1.24v5.92h-.91v-5.92Z"/>
    <path class="cls-3" d="M112.35,75.87c-.84,0-1.47-.29-1.9-.88-.43-.59-.64-1.45-.64-2.58s.21-2.01.64-2.59c.43-.59,1.06-.88,1.9-.88s1.47.29,1.9.88c.43.59.65,1.45.65,2.59s-.22,2-.65,2.59c-.43.58-1.06.88-1.9.88ZM112.35,75.1c.56,0,.97-.21,1.23-.64s.39-1.11.39-2.05-.13-1.64-.39-2.07c-.26-.43-.67-.65-1.23-.65s-.97.21-1.24.65c-.26.43-.39,1.12-.39,2.07s.13,1.63.39,2.05.67.64,1.24.64Z"/>
    <path class="cls-3" d="M116.27,69.06h.78l.06.81h.06c.17-.15.42-.31.76-.48.34-.17.71-.32,1.09-.43h.21v.96h-.36c-.36.06-.68.14-.97.25-.29.11-.54.24-.73.39v5.21h-.91v-6.7Z"/>
    <path class="cls-3" d="M120.27,69.06h.74l.08.72h.04c.79-.56,1.5-.84,2.11-.84.36,0,.65.07.85.21.2.14.35.35.44.65h.06c.4-.29.77-.5,1.12-.65s.69-.21,1.02-.21c.5,0,.87.14,1.09.41.22.27.33.72.33,1.35v5.06h-.88v-4.85c0-.41-.07-.71-.2-.89-.14-.18-.35-.27-.64-.27-.26,0-.55.06-.84.17-.3.12-.6.28-.92.5v5.34h-.88v-4.85c0-.41-.07-.71-.2-.89s-.35-.27-.64-.27c-.55,0-1.13.22-1.76.67v5.34h-.89v-6.7Z"/>
    <path class="cls-3" d="M130.95,75.82c-.5,0-.89-.16-1.17-.47-.28-.31-.42-.74-.42-1.28,0-1.23.78-1.91,2.33-2.04l1.19-.09v-.72c0-.56-.11-.96-.32-1.19s-.56-.34-1.05-.34c-.21,0-.46.02-.77.06-.31.04-.58.09-.83.16l-.07-.75c.31-.07.63-.12.95-.16.32-.04.61-.06.88-.06.73,0,1.26.17,1.6.51s.51.87.51,1.59v4.7h-.76l-.09-.81h-.07c-.26.21-.56.41-.88.6s-.66.27-1.04.27ZM131.26,75.07c.14,0,.29-.03.43-.08.15-.05.29-.12.44-.2.14-.08.28-.16.41-.25s.24-.16.34-.22v-1.74l-1,.09c-.58.05-.99.18-1.23.38-.24.21-.37.52-.37.93,0,.35.08.61.25.8.17.19.41.28.73.28Z"/>
    <path class="cls-3" d="M137.63,75.82c-1.13,0-1.7-.6-1.7-1.79v-4.17h-1.2v-.81h1.24l.12-1.66.73-.14v1.8h1.7v.81h-1.7v4.01c0,.41.09.71.26.9s.42.29.74.29c.09,0,.2,0,.32-.02.12-.01.24-.04.33-.07v.75c-.33.07-.62.1-.86.1Z"/>
    <path class="cls-3" d="M140.02,67.54c-.39,0-.58-.2-.58-.6s.19-.57.58-.57.61.19.61.57-.2.6-.61.6ZM139.58,69.06h.91v6.7h-.91v-6.7Z"/>
    <path class="cls-3" d="M144.42,75.87c-.84,0-1.47-.29-1.9-.88-.43-.59-.64-1.45-.64-2.58s.21-2.01.64-2.59c.43-.59,1.06-.88,1.9-.88s1.47.29,1.9.88c.43.59.65,1.45.65,2.59s-.22,2-.65,2.59c-.43.58-1.06.88-1.9.88ZM144.42,75.1c.56,0,.97-.21,1.23-.64s.39-1.11.39-2.05-.13-1.64-.39-2.07c-.26-.43-.67-.65-1.23-.65s-.97.21-1.24.65c-.26.43-.39,1.12-.39,2.07s.13,1.63.39,2.05.67.64,1.24.64Z"/>
    <path class="cls-3" d="M148.34,69.06h.78l.06.72h.05c.42-.29.8-.5,1.14-.64.34-.14.67-.21.98-.21.51,0,.88.14,1.1.41.22.27.33.72.33,1.35v5.06h-.91v-4.85c0-.42-.07-.72-.2-.89-.13-.17-.34-.26-.63-.26-.26,0-.55.06-.85.18-.3.12-.62.29-.95.51v5.31h-.91v-6.7Z"/>
    <path class="cls-3" d="M155.81,75.89c-.24,0-.49-.02-.75-.06-.26-.04-.58-.11-.95-.2v-.76c.26.09.54.16.83.2.29.05.56.07.81.07.39,0,.69-.1.9-.3.21-.2.32-.49.32-.86,0-.33-.08-.6-.25-.79-.17-.2-.43-.34-.81-.43-.2-.05-.4-.11-.6-.17-.2-.06-.39-.16-.56-.3-.17-.14-.31-.32-.42-.55s-.16-.54-.16-.93c0-.6.17-1.06.52-1.4.35-.33.83-.5,1.44-.5.21,0,.43.01.65.04.22.03.49.08.83.16v.76c-.32-.08-.58-.14-.77-.16-.19-.03-.38-.04-.56-.04-.39,0-.7.1-.92.29-.22.19-.33.47-.33.81,0,.21.03.39.09.52.06.13.14.24.25.33s.22.16.36.21c.14.05.28.1.44.15.26.07.49.16.69.26s.38.22.53.37c.14.15.26.33.33.55.08.22.12.48.12.79,0,.6-.18,1.07-.55,1.42s-.86.53-1.48.53Z"/>
    <path class="cls-3" d="M160.54,75.89c-.24,0-.49-.02-.75-.06-.26-.04-.58-.11-.95-.2v-.76c.26.09.54.16.83.2.29.05.56.07.81.07.39,0,.69-.1.9-.3.21-.2.32-.49.32-.86,0-.33-.08-.6-.25-.79-.17-.2-.43-.34-.81-.43-.2-.05-.4-.11-.6-.17-.2-.06-.39-.16-.56-.3-.17-.14-.31-.32-.42-.55s-.16-.54-.16-.93c0-.6.17-1.06.52-1.4.35-.33.83-.5,1.44-.5.21,0,.43.01.65.04.22.03.49.08.83.16v.76c-.32-.08-.58-.14-.77-.16-.19-.03-.38-.04-.56-.04-.39,0-.7.1-.92.29-.22.19-.33.47-.33.81,0,.21.03.39.09.52.06.13.14.24.25.33s.22.16.36.21c.14.05.28.1.44.15.26.07.49.16.69.26s.38.22.53.37c.14.15.26.33.33.55.08.22.12.48.12.79,0,.6-.18,1.07-.55,1.42s-.86.53-1.48.53Z"/>
    <path class="cls-3" d="M166.18,75.87c-.83,0-1.48-.29-1.92-.86-.45-.58-.67-1.4-.67-2.48,0-1.17.21-2.07.64-2.67.43-.61,1.07-.91,1.91-.91.68,0,1.19.24,1.54.73.35.49.52,1.21.52,2.16,0,.21,0,.38-.01.51,0,.13-.02.27-.04.41h-3.65c.03.8.19,1.4.47,1.78s.69.58,1.24.58c.26,0,.53-.03.79-.09.26-.06.55-.16.86-.3l.06.76c-.24.12-.51.21-.83.28-.31.07-.62.11-.92.11ZM166.12,69.69c-.49,0-.87.2-1.14.6s-.42.98-.46,1.76h2.83c0-.83-.1-1.44-.3-1.81-.2-.37-.51-.55-.93-.55Z"/>
    <path class="cls-3" d="M169.53,69.06h.78l.06.81h.06c.17-.15.42-.31.76-.48.34-.17.71-.32,1.09-.43h.21v.96h-.36c-.36.06-.68.14-.97.25-.29.11-.54.24-.73.39v5.21h-.91v-6.7Z"/>
    <path class="cls-3" d="M172.91,69.12v-.06h.93l1.56,5.19.17.67h.09l.17-.67,1.56-5.19h.92v.06l-2.12,6.64h-1.17l-2.12-6.64Z"/>
    <path class="cls-3" d="M179.82,67.54c-.39,0-.58-.2-.58-.6s.19-.57.58-.57.61.19.61.57-.2.6-.61.6ZM179.37,69.06h.91v6.7h-.91v-6.7Z"/>
    <path class="cls-3" d="M184.38,75.88c-.91,0-1.59-.28-2.04-.85-.45-.57-.67-1.44-.67-2.62,0-2.32.9-3.47,2.71-3.47.29,0,.66.05,1.12.16v.77c-.2-.05-.38-.08-.55-.11s-.34-.03-.5-.03c-.64,0-1.1.21-1.39.64-.29.43-.43,1.11-.43,2.04s.15,1.61.44,2.04c.29.43.75.65,1.38.65.26,0,.61-.05,1.06-.15v.76c-.17.05-.35.09-.55.12s-.39.05-.56.05Z"/>
    <path class="cls-3" d="M188.98,75.87c-.83,0-1.48-.29-1.92-.86-.45-.58-.67-1.4-.67-2.48,0-1.17.21-2.07.64-2.67.43-.61,1.07-.91,1.91-.91.68,0,1.19.24,1.54.73.35.49.52,1.21.52,2.16,0,.21,0,.38-.01.51,0,.13-.02.27-.04.41h-3.65c.03.8.19,1.4.47,1.78s.69.58,1.24.58c.26,0,.53-.03.79-.09.26-.06.55-.16.86-.3l.06.76c-.24.12-.51.21-.83.28-.31.07-.62.11-.92.11ZM188.92,69.69c-.49,0-.87.2-1.14.6s-.42.98-.46,1.76h2.83c0-.83-.1-1.44-.3-1.81-.2-.37-.51-.55-.93-.55Z"/>
  </g>
</svg>